# xmcd
#
# Track frame offsets: 
#        150
#        13318
#        29182
#        39676
#        51695
#        72338
#        82623
#        98982
#        120078
#        133672
#        147153
#
# Disc length: 2161 seconds
#
# Revision: 0
# Processed by: cddbd v1.4PL0 Copyright (c) Steve Scherf et al.
# Submitted via: ExactAudioCopy v0.90b4
#
DISCID=9c086f0b
DTITLE=Krystal Miller - Ready to Go
DYEAR=2002
DGENRE=Gospel
TTITLE0=Satisfied
TTITLE1=Hem of His Garment
TTITLE2=Going on a Trip
TTITLE3=Unclouded Day
TTITLE4=What More Could He Have Done?
TTITLE5=Ain't No Grave
TTITLE6=I Love to Say it Out Loud
TTITLE7=Earth's Loss, Heaven's Gain
TTITLE8=Moving on Up
TTITLE9=Jesus is Waiting for Me
TTITLE10=Amazing Grace
EXTD=
EXTT0=
EXTT1=
EXTT2=
EXTT3=
EXTT4=
EXTT5=
EXTT6=
EXTT7=
EXTT8=
EXTT9=
EXTT10=
PLAYORDER=
